HIERARCHY
ROOT Hips
{
     OFFSET 21.32450 98.35000 -43.54270
     CHANNELS 6 Xposition Yposition Zposition Zrotation Xrotation Yrotation
     JOINT Spine
     {
          OFFSET 0.00000 11.89050 0.00000
          CHANNELS 3 Zrotation Xrotation Yrotation
          JOINT Spine1
          {
               OFFSET 0.00000 25.65740 0.12766
               CHANNELS 3 Zrotation Xrotation Yrotation
               JOINT HEad
               {
                    OFFSET 0.00000 8.73416 0.01134
                    CHANNELS 3 Zrotation Xrotation Yrotation
                    End Site
                    {
                         OFFSET -0.29000 12.77420 2.51395
                    }
               }
               JOINT LeftShoulder1
               {
                    OFFSET 8.99000 -0.36225 -0.22000
                    CHANNELS 3 Zrotation Xrotation Yrotation
                    JOINT LeftArm
                    {
                         OFFSET 10.28270 -0.00338 0.32212
                         CHANNELS 3 Zrotation Xrotation Yrotation
                         JOINT LeftForeArm
                         {
                              OFFSET 32.76690 0.09914 -1.42434
                              CHANNELS 3 Zrotation Xrotation Yrotation
                              JOINT LeftHand
                              {
                                   OFFSET 27.56430 0.08536 1.02216
                                   CHANNELS 3 Zrotation Xrotation Yrotation
                                   End Site
                                   {
                                        OFFSET 16.74430 -0.60000 1.50291
                                   }
                              }
                         }
                    }
               }
               JOINT RightShoulder
               {
                    OFFSET -8.99000 -0.36225 -0.22000
                    CHANNELS 3 Zrotation Xrotation Yrotation
                    JOINT RightArm
                    {
                         OFFSET -10.28270 -0.00338 0.32212
                         CHANNELS 3 Zrotation Xrotation Yrotation
                         JOINT RightForeArm
                         {
                              OFFSET -32.89710 0.09914 -1.42434
                              CHANNELS 3 Zrotation Xrotation Yrotation
                              JOINT RightHand
                              {
                                   OFFSET -27.49210 0.08536 1.02216
                                   CHANNELS 3 Zrotation Xrotation Yrotation
                                   End Site
                                   {
                                        OFFSET -16.63120 -0.60000 1.50291
                                   }
                              }
                         }
                    }
               }
          }
     }
     JOINT LeftUpLeg
     {
          OFFSET 8.94580 -8.66707 0.10165
          CHANNELS 3 Zrotation Xrotation Yrotation
          JOINT LeftLeg
          {
               OFFSET 0.00000 -44.42270 1.37270
               CHANNELS 3 Zrotation Xrotation Yrotation
               JOINT LeftFoot
               {
                    OFFSET -0.25355 -42.09240 -1.46059
                    CHANNELS 3 Zrotation Xrotation Yrotation
                    JOINT LeftToes
                    {
                         OFFSET -0.04000 -4.41509 8.49910
                         CHANNELS 3 Zrotation Xrotation Yrotation
                         End Site
                         {
                              OFFSET 0.08000 -0.04745 9.77979
                         }
                    }
               }
          }
     }
     JOINT RightUpLeg
     {
          OFFSET -8.94580 -8.66707 0.10165
          CHANNELS 3 Zrotation Xrotation Yrotation
          JOINT RightLeg
          {
               OFFSET 0.00000 -44.42270 1.37270
               CHANNELS 3 Zrotation Xrotation Yrotation
               JOINT RightFoot
               {
                    OFFSET 0.25355 -42.09240 -1.46059
                    CHANNELS 3 Zrotation Xrotation Yrotation
                    JOINT RightToes
                    {
                         OFFSET 0.04000 -4.41509 8.49910
                         CHANNELS 3 Zrotation Xrotation Yrotation
                         End Site
                         {
                              OFFSET -0.08000 -0.13745 9.77979
                         }
                    }
               }
          }
     }
}
MOTION
Frames: 14
Frame Time: 0.01667
17.69390 89.10280 -59.97360 -8.95724 -12.52970 -25.75080 6.31358 9.89981 -0.19411 2.08601 21.21970 1.45724 -9.36757 35.75900 2.15328 0.00000 0.00000 0.00000 -119.64400 -15.16790 -66.76890 -9.53415 39.98130 -98.35340 -16.27580 12.26280 -11.71940 18.20110 2.63524 10.33190 85.84410 9.61045 69.88640 42.39980 14.48320 69.89140 27.49250 16.05320 20.39160 24.88150 -19.59630 9.79596 -4.00598 24.87150 2.56053 -10.00420 9.32229 1.40845 -0.13885 0.19123 -1.10277 -11.48240 -3.44280 -3.81036 6.00223 54.18290 -10.96380 3.63197 -32.37770 0.48468 -2.99395 -1.88173 -18.93100 
17.72880 89.11310 -60.01820 -8.86433 -12.42580 -25.83660 6.27936 9.87254 -0.21652 2.08176 21.14930 1.38616 -9.19744 35.61460 2.02427 0.00000 0.00000 0.00000 -119.65900 -15.13980 -66.94450 -9.62785 39.99830 -98.28800 -16.32930 12.24120 -11.52430 18.10980 2.62067 10.31020 85.95540 9.67646 69.99210 42.64570 14.43130 69.91510 27.79820 16.04880 20.10690 24.87250 -19.66150 9.56748 -4.18545 24.74510 2.96466 -9.90148 9.34280 1.39483 -0.02036 0.32940 -1.02540 -11.52710 -3.66146 -3.72246 6.05418 54.21030 -10.96260 3.48752 -32.46910 0.45421 -2.90253 -1.59337 -19.06050 
17.75070 89.12110 -60.07840 -8.78028 -12.34900 -25.89430 6.25927 9.85079 -0.24692 2.08768 21.09440 1.30470 -9.11399 35.52930 1.92961 0.00000 0.00000 0.00000 -119.72900 -15.06410 -67.13010 -9.65580 40.00560 -98.23830 -16.33870 12.22350 -11.39730 18.05070 2.60072 10.24500 86.06370 9.75151 70.10620 42.81080 14.42180 69.97990 28.01380 16.00490 19.75170 24.86120 -19.69300 9.21921 -4.41083 24.55840 3.46431 -9.80116 9.41746 1.38580 0.04521 0.40383 -0.97628 -11.57510 -3.85275 -3.68391 6.10763 54.25080 -10.95910 3.33038 -32.56140 0.42059 -2.77320 -1.19474 -19.22740 
17.75990 89.12430 -60.14840 -8.74728 -12.29540 -25.94460 6.25984 9.84402 -0.27887 2.11461 21.07410 1.22640 -9.16063 35.52980 1.88252 0.00000 0.00000 0.00000 -119.81800 -14.93910 -67.27750 -9.63166 40.01640 -98.21930 -16.28420 12.20230 -11.30530 18.02630 2.57996 10.15710 86.15670 9.83884 70.21930 42.88130 14.44910 70.08660 28.08200 15.93330 19.41720 24.88780 -19.68690 8.86716 -4.61534 24.35670 3.93500 -9.73624 9.53552 1.38535 0.04536 0.39840 -0.95989 -11.58170 -3.99836 -3.69326 6.12270 54.29750 -10.93590 3.22419 -32.64370 0.39819 -2.62182 -0.75631 -19.35470 
17.75920 89.11930 -60.21910 -8.78047 -12.25480 -25.99820 6.28172 9.85032 -0.30819 2.16614 21.08430 1.15759 -9.22546 35.57880 1.83371 0.00000 0.00000 0.00000 -119.89200 -14.79170 -67.32670 -9.31638 40.02040 -98.42480 -15.88700 12.14670 -11.29730 18.04750 2.56307 10.06390 86.21090 9.91472 70.30640 42.83450 14.52880 70.22080 27.94970 15.85810 19.23610 24.96560 -19.66660 8.63763 -4.72830 24.20690 4.23721 -9.73542 9.65502 1.39460 0.02190 0.36319 -0.95261 -11.53270 -4.09783 -3.74089 6.09434 54.34830 -10.89580 3.19171 -32.70700 0.39222 -2.48551 -0.38193 -19.41640 
17.75160 89.10340 -60.28390 -8.86514 -12.22500 -26.05110 6.31849 9.86011 -0.33666 2.23730 21.10490 1.09235 -9.15168 35.63110 1.71586 0.00000 0.00000 0.00000 -119.92100 -14.65100 -67.27050 -8.66686 39.98920 -98.89200 -15.11920 12.05670 -11.40570 18.12470 2.55430 9.98091 86.21470 9.93309 70.33120 42.68500 14.67690 70.35420 27.65060 15.80090 19.26310 25.07170 -19.65690 8.59631 -4.70484 24.15080 4.28817 -9.81815 9.74313 1.41410 0.01295 0.34016 -0.92203 -11.44870 -4.15710 -3.81042 6.05801 54.40320 -10.86360 3.19221 -32.73390 0.39298 -2.42108 -0.20311 -19.45280 
17.73840 89.07680 -60.34200 -8.97457 -12.21190 -26.09590 6.35936 9.86834 -0.36979 2.31571 21.12420 1.01960 -8.90018 35.67800 1.52942 0.00000 0.00000 0.00000 -119.89200 -14.53230 -67.16860 -8.01687 39.91600 -99.38010 -14.38000 11.97510 -11.55690 18.24360 2.55621 9.92862 86.19960 9.86851 70.27720 42.46220 14.89500 70.47630 27.29130 15.77090 19.45010 25.17230 -19.66230 8.71727 -4.55260 24.17960 4.10811 -9.98506 9.79862 1.44398 0.02182 0.32537 -0.84332 -11.35900 -4.18160 -3.88211 6.05212 54.45860 -10.87240 3.15702 -32.70100 0.38406 -2.47102 -0.31997 -19.48970 
17.72060 89.04270 -60.39560 -9.09283 -12.22170 -26.13640 6.39628 9.87735 -0.40841 2.38719 21.14570 0.94024 -8.60253 35.74850 1.36127 0.00000 0.00000 0.00000 -119.81300 -14.44470 -67.06720 -7.79359 39.85000 -99.59420 -14.10270 11.95050 -11.66400 18.38340 2.56941 9.92024 86.20560 9.73784 70.16350 42.22090 15.15040 70.58940 26.98900 15.76200 19.67610 25.25900 -19.66440 8.92892 -4.32962 24.25360 3.79057 -10.20970 9.83896 1.48162 0.03131 0.29447 -0.71556 -11.27170 -4.17408 -3.93880 6.07334 54.50840 -10.92390 3.05427 -32.60620 0.35818 -2.61823 -0.69293 -19.51200 
17.70070 89.00670 -60.44560 -9.21361 -12.25820 -26.18350 6.42918 9.89290 -0.44865 2.44376 21.18120 0.86470 -8.45995 35.87280 1.31335 0.00000 0.00000 0.00000 -119.70800 -14.39890 -66.96520 -8.19144 39.85960 -99.40900 -14.40180 11.99770 -11.70460 18.52480 2.59005 9.94648 86.24310 9.59371 70.03790 42.06760 15.36270 70.67490 26.84960 15.75900 19.78660 25.34170 -19.63880 9.17024 -4.10721 24.33560 3.43939 -10.44240 9.87548 1.52035 0.02936 0.24379 -0.57741 -11.18210 -4.13628 -3.97884 6.07834 54.54850 -10.97570 2.89696 -32.47240 0.31916 -2.80770 -1.18233 -19.51360 
17.68210 88.97380 -60.49080 -9.32510 -12.32140 -26.23600 6.46686 9.92087 -0.49232 2.49058 21.24410 0.78992 -8.54492 36.04640 1.39845 0.00000 0.00000 0.00000 -119.62200 -14.39910 -66.87410 -8.92580 39.93380 -99.00020 -15.01280 12.08010 -11.68120 18.61780 2.60853 9.98684 86.31930 9.49925 69.94830 42.05970 15.45780 70.70800 26.90860 15.75430 19.71550 25.41710 -19.57720 9.39708 -3.93262 24.40290 3.13274 -10.63230 9.90690 1.55222 0.01928 0.19887 -0.48903 -11.09820 -4.07262 -4.01485 6.03519 54.57960 -10.98570 2.71386 -32.33490 0.27462 -2.99027 -1.65333 -19.51790 
17.66500 88.94790 -60.52900 -9.41208 -12.40640 -26.27880 6.52039 9.96190 -0.54636 2.53977 21.33740 0.70143 -8.75667 36.24900 1.53479 0.00000 0.00000 0.00000 -119.58900 -14.42880 -66.82920 -9.20863 39.95350 -98.85920 -15.37420 12.12200 -11.61990 18.60740 2.61654 10.03010 86.44560 9.48249 69.90870 42.13260 15.43190 70.68550 27.08560 15.75530 19.56530 25.47010 -19.48790 9.57278 -3.82491 24.44020 2.91612 -10.75120 9.93160 1.57267 0.00988 0.18365 -0.48332 -11.03560 -3.99030 -4.04541 5.96480 54.60420 -10.96640 2.54137 -32.22790 0.23351 -3.13085 -2.01146 -19.53400 
17.64550 88.93170 -60.55850 -9.46919 -12.50460 -26.29790 6.59197 10.00790 -0.61209 2.59469 21.44580 0.59607 -8.97814 36.47690 1.65653 0.00000 0.00000 0.00000 -119.59500 -14.45800 -66.82950 -8.49437 39.82200 -99.33810 -15.10360 12.07620 -11.56150 18.50900 2.61495 10.07310 86.60130 9.51757 69.89050 42.19680 15.34240 70.61840 27.26050 15.77220 19.48170 25.49480 -19.38110 9.67720 -3.78603 24.43910 2.79613 -10.79610 9.95377 1.58153 0.00167 0.19080 -0.53692 -10.99580 -3.89238 -4.05365 5.90578 54.61880 -10.96410 2.41660 -32.15830 0.20413 -3.22484 -2.25290 -19.53940 
17.61930 88.92720 -60.57530 -9.49952 -12.60920 -26.27980 6.67024 10.04690 -0.68442 2.64874 21.54340 0.48133 -9.15670 36.72890 1.76489 0.00000 0.00000 0.00000 -119.59200 -14.46770 -66.82420 -7.18601 39.57780 -100.19600 -14.44250 11.97470 -11.48870 18.40570 2.61071 10.10640 86.73280 9.55807 69.85260 42.22850 15.25130 70.51840 27.37000 15.80290 19.50960 25.49060 -19.26770 9.70522 -3.80608 24.40360 2.74297 -10.77620 9.97607 1.58041 -0.01156 0.18808 -0.58242 -10.97220 -3.77136 -4.04626 5.86135 54.60990 -10.99940 2.35260 -32.09080 0.18863 -3.31418 -2.50087 -19.49720 
17.58560 88.93590 -60.57300 -9.50372 -12.71330 -26.20540 6.73631 10.06920 -0.75866 2.69844 21.60690 0.35868 -9.26474 36.98220 1.88022 0.00000 0.00000 0.00000 -119.54400 -14.46570 -66.76080 -6.04510 39.34590 -100.96000 -13.84620 11.88030 -11.39440 18.36540 2.60821 10.11540 86.79500 9.57166 69.77880 42.25100 15.18780 70.39800 27.40970 15.83900 19.61850 25.45210 -19.16810 9.65285 -3.87104 24.35200 2.72204 -10.70600 9.98895 1.57069 -0.02181 0.16532 -0.55848 -10.96930 -3.61531 -4.06249 5.82024 54.55760 -11.06590 2.32767 -31.98190 0.18134 -3.44647 -2.89279 -19.37600 
